<?xml version="1.0" encoding="UTF-8" standalone="no"?>
<!-- Created with Inkscape (http://www.inkscape.org/) -->

<svg
   xmlns:dc="http://purl.org/dc/elements/1.1/"
   xmlns:cc="http://creativecommons.org/ns#"
   xmlns:rdf="http://www.w3.org/1999/02/22-rdf-syntax-ns#"
   xmlns:svg="http://www.w3.org/2000/svg"
   xmlns="http://www.w3.org/2000/svg"
   xmlns:sodipodi="http://sodipodi.sourceforge.net/DTD/sodipodi-0.dtd"
   xmlns:inkscape="http://www.inkscape.org/namespaces/inkscape"
   width="200mm"
   height="200mm"
   viewBox="0 0 200 200"
   version="1.1"
   id="svg8"
   sodipodi:docname="news.svg"
   inkscape:version="0.92.3 (2405546, 2018-03-11)">
  <defs
     id="defs2" />
  <sodipodi:namedview
     id="base"
     pagecolor="#ffffff"
     bordercolor="#666666"
     borderopacity="1.0"
     inkscape:pageopacity="0.0"
     inkscape:pageshadow="2"
     inkscape:zoom="0.42184269"
     inkscape:cx="-138.05016"
     inkscape:cy="237.96141"
     inkscape:document-units="mm"
     inkscape:current-layer="layer1"
     showgrid="false"
     inkscape:object-paths="true"
     inkscape:snap-intersection-paths="true"
     inkscape:snap-smooth-nodes="true"
     inkscape:pagecheckerboard="true"
     fit-margin-top="0"
     fit-margin-left="0"
     fit-margin-right="0"
     fit-margin-bottom="0"
     inkscape:window-width="1920"
     inkscape:window-height="1056"
     inkscape:window-x="0"
     inkscape:window-y="24"
     inkscape:window-maximized="1"
     inkscape:snap-nodes="true"
     inkscape:snap-midpoints="true" />
  <metadata
     id="metadata5">
    <rdf:RDF>
      <cc:Work
         rdf:about="">
        <dc:format>image/svg+xml</dc:format>
        <dc:type
           rdf:resource="http://purl.org/dc/dcmitype/StillImage" />
        <dc:title></dc:title>
      </cc:Work>
    </rdf:RDF>
  </metadata>
  <g
     inkscape:label="Layer 1"
     inkscape:groupmode="layer"
     id="layer1"
     transform="translate(-182.68285,139.10317)">
    <g
       id="g1870"
       transform="matrix(1.0305544,0,0,1.0305544,-113.52597,-64.047896)">
      <rect
         ry="16.172525"
         rx="21.094473"
         y="-72.830002"
         x="287.42667"
         height="194.0703"
         width="194.0703"
         id="rect1439"
         style="opacity:1;fill:#9b59b6;fill-opacity:1;fill-rule:nonzero;stroke:none;stroke-width:4.19025707;stroke-linejoin:miter;stroke-miterlimit:4;stroke-dasharray:none;stroke-opacity:1;paint-order:markers fill stroke" />
      <g
         transform="translate(-5.1491301,6.6657573)"
         id="g1863">
        <path
           style="opacity:1;fill:#8e44ad;fill-opacity:1;fill-rule:nonzero;stroke:none;stroke-width:1.4050715;stroke-linejoin:miter;stroke-miterlimit:4;stroke-dasharray:none;stroke-opacity:1;paint-order:markers fill stroke"
           d="m 298.02577,70.922717 28.60791,-14.45523 32.93026,14.45523 30.80572,-15.90075 32.39912,15.90075 27.08779,-13.00971 31.33955,13.00971 c 0.16478,0.0684 0.30087,0.36521 0.30087,0.81885 v 8.48097 c 0,0.45364 -0.13418,0.81885 -0.30087,0.81885 l -30.8084,-13.00971 -27.61894,13.00971 -32.39912,-15.90075 -30.80572,15.90075 -32.39913,-14.45523 -29.13904,14.45523 c -0.16399,0.0814 -0.30087,-0.36521 -0.30087,-0.81885 v -8.48097 c 0,-0.45364 0.13418,-0.81885 0.30087,-0.81885 z"
           id="rect1815"
           inkscape:connector-curvature="0"
           sodipodi:nodetypes="scccccsssscccccssss" />
        <path
           sodipodi:nodetypes="scccccsssscccccssss"
           inkscape:connector-curvature="0"
           id="path1818"
           d="M 298.02577,20.425587 326.63368,5.9703573 359.56394,20.425587 390.36966,4.5248373 422.76878,20.425587 449.85657,7.4158873 481.19612,20.425587 c 0.16478,0.0684 0.30087,0.36521 0.30087,0.81885 v 8.48097 c 0,0.45365 -0.13418,0.81885 -0.30087,0.81885 l -30.8084,-13.00971 -27.61894,13.00971 -32.39912,-15.90075 -30.80572,15.90075 -32.39913,-14.45523 -29.13904,14.45523 c -0.16399,0.0814 -0.30087,-0.3652 -0.30087,-0.81885 v -8.48097 c 0,-0.45364 0.13418,-0.81885 0.30087,-0.81885 z"
           style="opacity:1;fill:#8e44ad;fill-opacity:1;fill-rule:nonzero;stroke:none;stroke-width:1.4050715;stroke-linejoin:miter;stroke-miterlimit:4;stroke-dasharray:none;stroke-opacity:1;paint-order:markers fill stroke" />
        <path
           style="opacity:1;fill:#8e44ad;fill-opacity:1;fill-rule:nonzero;stroke:none;stroke-width:1.4050715;stroke-linejoin:miter;stroke-miterlimit:4;stroke-dasharray:none;stroke-opacity:1;paint-order:markers fill stroke"
           d="m 298.02577,-30.071523 28.60791,-14.45523 32.93026,14.45523 30.80572,-15.90075 32.39912,15.90075 27.08779,-13.00971 31.33955,13.00971 c 0.16478,0.0684 0.30087,0.36521 0.30087,0.81885 v 8.48097 c 0,0.45364 -0.13418,0.81885 -0.30087,0.81885 l -30.8084,-13.00971 -27.61894,13.00971 -32.39912,-15.90075 -30.80572,15.90075 -32.39913,-14.45523 -29.13904,14.45523 c -0.16399,0.0814 -0.30087,-0.36521 -0.30087,-0.81885 v -8.48097 c 0,-0.45364 0.13418,-0.81885 0.30087,-0.81885 z"
           id="path1820"
           inkscape:connector-curvature="0"
           sodipodi:nodetypes="scccccsssscccccssss" />
      </g>
    </g>
    <g
       id="g933"
       transform="matrix(0.13434587,0,0,0.125045,65.009353,174.71699)" />
  </g>
</svg>
